<?xml version="1.0" encoding="utf-8" ?><svg xmlns="http://www.w3.org/2000/svg" xmlns:xlink="http://www.w3.org/1999/xlink" width="704" height="704" viewBox="0 0 704 704"><path d="M101.021 317.443L154.237 317.446C164.158 317.446 174.069 317.26 183.982 317.561C196.944 317.954 202.758 325.784 209.862 335.212L224.895 355.361C239.211 374.537 237.461 373.051 261.101 372.963L290.151 372.998L418.538 372.993L468.296 372.993C471.18 372.995 474.114 372.944 477.001 372.999C493.424 373.312 508.755 369.709 511.356 391.53C496.827 391.994 482.177 391.679 467.629 391.693L393.921 391.724L220.958 391.687L148.048 391.674L121.035 391.699C107.075 391.748 89.2606 389.949 89.4642 410.595C89.5564 419.935 91.1992 429.922 92.1949 439.278L98.3744 496.227C101.131 522.41 104.067 548.573 107.184 574.716C108.817 588.673 110.262 603.21 112.782 617.03C113.767 622.44 116.119 628.698 120.057 632.695C118.475 625.335 117.215 607.858 116.57 599.939C115.501 587.163 114.25 574.404 112.816 561.664L103.666 471.984C102.3 458.718 101.018 445.444 99.8206 432.162C99.1531 424.361 96.1733 412.183 102.291 406.312C108.875 399.993 120.031 401.381 128.578 401.415L152.857 401.431L234.094 401.441L500.241 401.979C520.212 402.09 530.372 408.188 529.746 429.987C529.585 435.572 529.783 440.566 528.656 446.223C523.695 446.73 522.166 444.791 517.461 442.978C514.613 434.836 513.635 424.973 510.513 416.899C509.963 415.478 509.182 415.122 507.895 414.284C493.593 412.928 476.918 414.811 462.37 414.015C461.139 413.948 457.753 415.341 457.299 416.515C454.051 424.925 452.967 434.203 450.094 442.751C449.369 444.906 434.039 450.358 431.358 451.29C427.888 449.005 404.238 431.877 402.679 431.937C401.036 432 399.129 433.159 397.824 434.075C395.641 435.607 393.776 437.747 391.777 439.526C383.568 446.78 375.694 454.407 368.181 462.381C367.001 463.644 365.249 465.603 365.022 467.36C364.426 471.986 379.975 489.981 379.804 494.357C379.706 496.887 377.329 500.674 376.242 502.965C375.214 505.13 374.122 509.228 372.398 510.785C367.598 515.117 344.463 514.328 338.952 518.823C337.711 519.836 337.353 521.096 337.091 522.622C336.297 527.248 336.743 532.379 336.821 537.065C336.991 547.277 337.647 559.107 336.893 569.154L339.465 572.26C345.866 574.458 369.608 576.377 372.675 579.126C373.543 581.38 379.932 594.94 379.35 596.028C374.529 605.034 367.589 612.797 363.004 622.04C363.264 622.625 363.546 623.2 363.85 623.764C366.03 627.861 392.266 652.087 397.044 656.125C397.868 656.822 400.472 658.478 401.59 658.676C402.126 658.771 402.476 658.973 403.022 658.703C407.988 656.25 413.645 652.156 418.137 649.127C421.901 646.611 425.718 644.176 429.585 641.823C435.48 644.683 441.429 647.487 447.309 650.441C450.129 651.859 450.304 654.825 451.15 657.538C453.173 664.024 454.475 674.342 457.565 680.261L457.818 680.737C458.452 681.177 459.374 681.78 460.161 681.805C475.877 682.306 491.732 681.598 507.454 682.008L507.922 681.535C513.511 675.966 513.491 658.348 517.736 651.113C518.38 650.016 524.512 647.95 525.658 647.718C528.552 649.21 525.883 655.664 525.338 658.461C524.116 664.977 522.807 671.477 521.412 677.958C520.607 681.773 519.891 686.114 518.445 689.694C517.516 690.509 514.653 692.629 513.503 692.737C504.883 693.542 494.501 693.07 485.891 693.131C475.321 693.094 464.689 693.487 454.132 692.917C451.808 692.791 448.36 690.591 447.558 688.344C444.934 681.001 443.904 672.797 442.227 665.119C438.202 664.735 426.511 664.681 422.681 665.362C417.006 666.978 405.484 677.558 400.508 677.814C396.289 678.031 377.49 659.862 374.573 657.199C370.489 656.679 358.466 656.975 353.939 656.982L315.016 656.985L179.007 656.964L147.613 656.992C132.161 657.002 116.731 658.16 104.134 647.339C90.9287 635.995 91.4551 620.595 90.1549 604.589C88.711 586.817 87.4648 568.964 86.0858 551.164L72.2876 357.467C72.0366 353.441 71.9772 349.388 72.0437 345.362C72.3392 327.488 84.3507 318.378 101.021 317.443Z"/><path d="M468.324 426.012C473.821 425.654 494.51 425.274 499.603 426.214C502.561 428.737 504.089 450.407 507.597 451.531C515.399 454.029 526.636 458.564 534.43 460.959C540.997 455.645 556.635 437.242 563.108 434.416C564.981 434.407 567.946 435.957 569.162 437.151C573.358 441.273 599.856 464.482 600.859 468.302C600.099 472.95 583.994 490.858 579.845 496.518C581.491 500.417 587.53 515.236 589.564 517.584C592.629 521.122 617.352 520.112 623.679 523.402C625.164 524.174 626.01 525.35 626.501 526.931C627.375 529.749 627.267 562.369 626.886 566.673C626.739 568.331 626.365 570.064 625.503 571.507C624.731 572.799 623.627 573.643 622.195 574.087C618.515 575.228 613.677 574.913 609.819 575.221C603.305 575.741 596.41 576.475 590.054 577.979L589.457 578.123C585.126 584.139 581.703 590.79 577.275 596.719C581.087 603.796 594.143 617.146 598.806 624.67C599.187 625.059 598.435 626.301 598.157 626.576C592.038 632.624 570.454 657.536 563.426 659.011C560.777 658.518 537.628 637.829 533.997 634.55C528.647 636.094 526.458 637.785 521.819 639.905C519.727 640.861 511.952 642.811 509.37 643.48L506.574 644.81C503.269 651.767 502.162 662.913 499.588 669.565C496.218 671.262 472.533 670.284 467.168 669.97C466.85 667.311 461.395 645.588 460.369 643.431C458.638 642.306 429.157 628.702 428.499 628.825C423.075 629.836 408.137 642.696 402.128 643.752C399.39 643.186 381.125 624.778 378.522 622.099C379.582 616.195 391.182 602.897 393.618 596.128C391.97 592.928 381.595 568.514 380.61 568.046C373.087 564.471 357.705 564.447 349.776 561.786L349.234 561.6L348.91 543.518C348.816 539.901 348.363 532.565 349.002 529.33C351.29 527.031 380.765 524.686 381.875 521.985C385.396 513.414 388.904 503.082 393.629 494.831L393.803 494.532L393.841 491.742C390.452 488.061 381.818 472.94 379.683 468.002L381.595 465.828C384.182 462.875 386.853 461.222 389.593 458.65C394.077 454.443 397.91 450.713 402.743 446.876C405.969 449.378 428.318 465.03 429.873 464.779C434.507 464.029 455.028 455.001 460.092 452.42C463.549 446.47 465.522 428.947 468.324 426.012ZM488.021 616.246C525.3 613.637 553.493 581.444 551.164 544.147C548.834 506.849 516.854 478.415 479.54 480.465C441.829 482.537 413.024 514.933 415.379 552.628C417.733 590.323 450.345 618.883 488.021 616.246Z"/><path d="M481.645 503.131C506.138 501.709 527.179 520.342 528.729 544.828C530.279 569.313 511.756 590.451 487.279 592.128C462.62 593.818 441.292 575.128 439.731 550.461C438.169 525.795 456.97 504.564 481.645 503.131Z"/><path d="M117.619 40.3726C129.339 39.6913 142.56 40.4264 154.486 40.3476L255.204 40.2587L321.059 40.2581L341.87 40.2205C347.584 40.2121 356.274 39.11 360.643 43.1052C364.188 46.3472 365.018 49.4634 365.04 54.0829C365.105 67.7278 364.87 81.4004 364.95 95.0437L365.044 114.953C365.054 119.05 365.236 123.236 364.673 127.296C364.069 131.655 358.65 136.437 354.347 136.739C346.805 137.27 339.004 136.963 331.405 136.966L284.355 137L124.81 136.93C116.333 136.918 106.37 138.283 102.2 146.983C101.815 147.787 102.003 148.214 102.333 148.921C103.901 148.974 108.653 146.141 112.65 146.086C117.456 146.019 122.588 146.054 127.416 146.061L155.003 146.111L155.041 307.032C150.665 306.933 145.953 307.021 141.55 307.02C141.967 298.418 141.743 288.656 141.685 279.984C141.451 245.01 142.047 209.882 141.552 174.924C131.404 174.505 117.137 176.617 108.31 171.246C96.0729 163.801 97.9922 150.373 98.0138 137.92L98.0236 106.844L97.9995 75.0363C97.9968 69.6873 97.633 63.2717 98.1834 58.0387C99.2983 47.4378 108.274 42.0889 117.619 40.3726ZM269.974 96.9665C270.553 100.267 270.262 103.279 266.077 103.652C260.026 104.159 253.819 101.654 248.428 99.3736C245.927 98.3158 244.327 108.134 244.719 108.746C247.101 112.455 259.378 114.436 262.4 114.823C271.26 113.981 280.835 112.899 282.888 101.587C283.631 97.4962 283.07 93.6271 280.725 90.3261C275.836 82.0392 257.581 84.9982 257.641 77.3764C258.232 75.9421 258.571 76.0453 259.69 75.4584C265.832 72.2382 270.943 76.4459 277.019 77.7715C277.83 77.9486 278.666 78.0829 278.823 77.1885C279.149 75.3285 280.67 69.0018 280.09 67.6697C276.285 65.0695 266.419 62.64 262.252 63.4003C259.205 63.6422 258.091 63.7597 255.157 64.7084C244.369 68.1973 240.615 82.547 250.285 89.6103C256.24 93.9599 263.278 93.4642 269.974 96.9665ZM303.119 114.464C314.127 114.579 325.368 111.763 325.147 98.3085C325.387 93.6346 323.918 92.1212 321.667 88.8603C317.311 82.5467 300.208 84.8351 299.624 77.3295C299.114 70.788 318.908 77.6161 320.208 77.4064C321.515 76.1144 323.242 69.8387 322.385 68.0971C319.42 65.3985 309.581 62.8227 305.668 63.3955C295.599 64.274 286.441 68.057 287.093 80.7407C287.29 84.5759 289.836 87.6346 292.642 89.8088C298.216 94.6192 309.68 92.8346 312.69 99.0455C311.836 107.472 295.343 102.105 291.264 99.5731C288.551 97.8882 287.222 105.068 286.922 106.745C285.591 112.72 299.82 113.798 303.119 114.464ZM183.184 95.343C184.013 96.0821 186.4 97.9315 186.129 99.022C183.738 108.652 167.086 100.754 162.616 98.8186C162.02 101.184 159.66 107.907 160.273 109.596C164.013 112.609 173.467 114.227 178.227 114.668C188.813 113.857 199.075 110.994 198.635 97.3621C198.293 86.7836 188.63 84.8084 180.438 82.8182C177.323 82.0329 173.507 81.4995 172.968 77.8182C173.55 75.3041 178.612 73.6956 180.505 74.1889C185.164 75.4028 189.09 75.8746 193.329 78.3175C194.153 75.604 195.291 70.173 196.075 68.1773C190.648 65.116 183.754 62.6454 177.422 63.3369C171.746 64.1884 166.774 65.1413 163.149 70.2599C160.77 73.584 159.832 77.7278 160.548 81.7528C162.453 91.9807 174.511 93.8883 183.184 95.343ZM146.595 98.8238C143.722 99.0871 141.24 100.938 140.168 103.616C139.107 106.266 139.603 109.285 141.457 111.456C143.31 113.627 146.215 114.59 148.999 113.957C151.786 113.323 153.99 111.193 154.719 108.429C155.359 106.006 154.776 103.424 153.158 101.511C151.539 99.5982 149.09 98.5951 146.595 98.8238ZM220.543 63.9974C218.599 65.0485 214.249 66.3439 212.993 67.2916C186.666 87.1638 209.655 126.752 240.829 111.06C240.652 108.054 239.98 105.5 239.868 102.878C239.493 101.81 239.317 101.249 238.765 100.236C232.495 101.683 227.105 104.432 220.459 100.695C214.328 97.2481 213.253 86.2158 216.7 80.5566C222.015 72.6884 231.374 75.125 238.405 77.9634C241.045 69.3951 243.855 66.4949 233.153 64.3712C228.552 63.4582 224.945 64.2158 220.543 63.9974Z"/><path d="M158.468 7.33713C165.611 6.95535 176.049 7.32702 183.448 7.32777L238.735 7.37828L432.66 7.49406C436.559 10.6325 444.068 18.5112 448.045 22.3299C461.481 35.2122 474.792 48.2244 487.977 61.3647C503.946 76.7581 519.765 92.3058 535.432 108.006C541.624 114.182 551.101 122.97 556.503 129.261C556.774 152.856 556.577 176.86 556.567 200.481L556.578 314.7L556.594 382.711C556.599 393.108 557.099 407.544 556.518 417.481C552.934 421.817 546.843 426.398 542.919 430.945C543.013 425.628 543.063 420.31 543.067 414.992L543.077 225.825C543.073 198.367 542.834 170.482 543.134 143.048L456.952 143.086C445.662 143.013 437.265 141.121 429.056 132.693C424.989 128.52 422.205 123.267 421.034 117.558C419.431 109.916 420.255 90.8511 420.221 82.3583C420.139 61.8981 420.148 41.4717 420.447 21.0133C395.935 21.8837 368.596 21.2124 343.889 21.1823L223.931 21.2748L184.021 21.2291C179.73 21.2194 158.601 20.7175 156.75 21.8956C155.286 24.8758 155.643 30.3811 155.839 33.7074C151.188 33.65 146.547 33.5514 141.898 33.7157C142.336 19.743 140.411 9.70877 158.468 7.33713ZM536.57 130.174L538.086 130.214L538.392 129.897C536.899 129.002 530.177 127.319 527.939 126.723C519.101 124.444 510.25 122.219 501.386 120.047C497.166 118.995 490.363 117.453 486.443 116C483.807 115.039 481.315 113.723 479.034 112.089C473.221 107.861 466.177 92.0407 462.527 85.1212C454.601 70.0205 446.568 54.9761 438.429 39.9891C437.441 38.2074 435.083 32.817 433.84 31.8982C434.294 37.8519 434.056 46.0929 434.064 52.2758L434.02 87.974C434.009 89.8103 433.946 91.671 433.99 93.5045C434.262 104.961 432.059 115.55 441.751 123.816C444.974 126.518 448.819 128.376 452.939 129.223C458.654 130.358 471.178 130.001 477.619 130.001L515.244 129.998C521.686 130 530.243 129.799 536.57 130.174Z"/><path d="M318.71 292.734C322.503 293.188 329.601 292.823 333.581 292.816L365.588 292.822L469.471 292.956C477.415 297.046 476.447 306.573 467.512 307.817C464.061 308.298 459.502 308.06 455.938 308.065L436.469 308.078L371.336 308.058L270.47 308.063L238.581 308.08C233.001 308.086 227.423 308.158 221.844 308.034C216.32 307.912 214.498 305.908 212.876 300.925C214.052 297.299 215.389 293.173 219.815 293.057C228.082 292.839 236.939 292.962 245.201 292.979L290.114 292.944C298.903 292.955 310.084 293.261 318.71 292.734Z"/><path d="M254.244 320.409C257.548 320.028 269.154 320.342 272.894 320.352L311.192 320.374L393.653 320.411C404.837 320.419 416.016 320.402 427.199 320.293C430.906 320.256 434.259 320.662 435.928 324.476C436.784 326.441 436.824 328.665 436.041 330.66C434.841 333.782 433.165 334.515 430.378 335.783C421.344 336.448 407.603 336.061 398.286 336.056L341.066 336.04L285.245 336.044C276.713 336.051 268.17 336.052 259.632 336.033C255.229 336.023 249.569 334.755 248.755 329.581C248.03 324.976 250.161 322.177 254.244 320.409Z"/><path d="M275.413 155.565C276.6 155.484 277.819 155.257 278.861 155.746C279.419 158.894 278.993 164.753 279.374 168.576L279.422 169.016C267.799 169.024 266.773 172.172 266.979 183.267C267.247 197.714 269.207 205.3 254.975 213.507C276.115 220.642 261.457 247.155 269.294 254.825C271.886 257.361 276.072 256.846 279.427 256.89C279.472 260.595 279.236 266.771 279.72 270.159C274.909 270.185 268.705 270.375 264.058 269.75C238.125 264.391 254.953 233.279 245.208 223.666C242.355 220.852 238.904 220.693 235.148 220.696C235.191 215.924 235.17 211.15 235.086 206.378C236.823 206.146 241.683 205.617 242.934 204.834C254.865 197.366 242.546 172.731 253.903 162.06C260.924 155.464 266.929 155.783 275.413 155.565Z"/><path d="M393.59 155.843C402.294 155.663 411.034 154.897 417.83 161.505C426.508 169.75 423.677 182.154 424.095 192.871C424.507 203.411 429.132 206.167 438.968 206.005C438.927 210.736 438.993 215.561 439.009 220.3C408.345 221.394 439.087 256.406 411.764 268.847C406.387 270.607 398.613 270.33 392.94 269.856C393.2 265.463 393.231 261.483 393.221 257.091C397.283 257.058 404.594 256.855 405.574 251.457C408.26 236.655 400.004 220.828 418.545 213.383C396.416 202.234 411.525 180.355 403.886 171.656C401.37 168.791 396.586 169.013 393.071 168.679C393.329 165.764 392.68 157.324 393.59 155.843Z"/><path d="M294.856 347.281C297.289 346.958 303.251 347.18 306.018 347.175L331.345 347.167L370.841 347.149C376.963 347.152 391.819 346.495 396.69 348.319C398.985 351.965 400.129 360.038 394.367 361.004C386.978 361.341 378.656 361.154 371.176 361.156L330.966 361.167L308.203 361.197C304.988 361.199 298.539 361.57 295.727 360.942C288.502 359.328 289.139 350.873 294.856 347.281Z"/><path d="M308.595 181.722C310.948 182.294 325.765 187.936 327.704 189.022C326.797 191.939 325.042 195.382 323.741 198.237L316.959 213.149C313.345 221.128 308.028 234.296 304 241.664C303.184 241.506 298.14 239.287 296.841 238.766C292.85 237.171 288.82 235.675 284.756 234.278C289.541 223.989 293.803 213.313 298.742 203.066C302.127 196.043 304.982 188.638 308.595 181.722Z"/><path d="M355.286 176.9C356.894 177.052 372.306 183.07 373.808 184.042C373.622 186.709 353.408 232.358 350.861 236.775C344.925 233.423 336.849 231.79 331.551 228.929C339.457 211.896 346.996 193.671 355.286 176.9Z"/><path d="M380.493 200.147C383.593 201.728 391.309 204.468 394.718 205.398C391.609 212.475 385.941 223.465 383.465 230.106C381.816 229.846 371.592 225.461 369.73 224.568C373.159 217.109 377.654 207.68 380.493 200.147Z"/></svg>